<?xml version="1.0" encoding="UTF-8" standalone="no"?>
<!-- Created with Inkscape (http://www.inkscape.org/) -->

<svg
   xmlns:dc="http://purl.org/dc/elements/1.1/"
   xmlns:cc="http://creativecommons.org/ns#"
   xmlns:rdf="http://www.w3.org/1999/02/22-rdf-syntax-ns#"
   xmlns:svg="http://www.w3.org/2000/svg"
   xmlns="http://www.w3.org/2000/svg"
   xmlns:sodipodi="http://sodipodi.sourceforge.net/DTD/sodipodi-0.dtd"
   xmlns:inkscape="http://www.inkscape.org/namespaces/inkscape"
   width="64"
   height="64"
   id="svg4944"
   version="1.1"
   inkscape:version="0.91 r13725"
   viewBox="0 0 64 64"
   sodipodi:docname="Logo-color.svg">
  <defs
     id="defs4946" />
  <sodipodi:namedview
     id="base"
     pagecolor="#c0c0c0"
     bordercolor="#666666"
     borderopacity="1.0"
     inkscape:pageopacity="0"
     inkscape:pageshadow="2"
     inkscape:zoom="7.7781746"
     inkscape:cx="2.3049657"
     inkscape:cy="30.401798"
     inkscape:current-layer="layer1"
     showgrid="true"
     inkscape:document-units="px"
     inkscape:grid-bbox="true"
     inkscape:window-width="1920"
     inkscape:window-height="1019"
     inkscape:window-x="0"
     inkscape:window-y="1050"
     inkscape:window-maximized="1">
    <inkscape:grid
       type="xygrid"
       id="grid5492" />
  </sodipodi:namedview>
  <metadata
     id="metadata4949">
    <rdf:RDF>
      <cc:Work
         rdf:about="">
        <dc:format>image/svg+xml</dc:format>
        <dc:type
           rdf:resource="http://purl.org/dc/dcmitype/StillImage" />
        <dc:title></dc:title>
      </cc:Work>
    </rdf:RDF>
  </metadata>
  <g
     id="layer1"
     inkscape:label="Layer 1"
     inkscape:groupmode="layer">
    <path
       style="opacity:1;fill:#1284a1;fill-opacity:1;fill-rule:evenodd;stroke:none;stroke-width:1.12600005;stroke-linecap:round;stroke-linejoin:bevel;stroke-miterlimit:4;stroke-dasharray:none;stroke-dashoffset:0;stroke-opacity:1"
       d="M 32 4 A 28 28 0 0 0 4 32 A 28 28 0 0 0 32 60 A 28 28 0 0 0 60 32 A 28 28 0 0 0 55.894531 17.472656 A 6 6 0 0 1 54.335938 18.748047 A 26 26 0 0 1 58 32 A 26 26 0 0 1 32 58 A 26 26 0 0 1 6 32 A 26 26 0 0 1 32 6 A 26 26 0 0 1 46.314453 10.316406 A 6 6 0 0 1 47.666016 8.8242188 A 28 28 0 0 0 32 4 z "
       id="path5494" />
    <circle
       style="opacity:1;fill:#1284a1;fill-opacity:1;fill-rule:evenodd;stroke:none;stroke-width:1.12600005;stroke-linecap:round;stroke-linejoin:bevel;stroke-miterlimit:4;stroke-dasharray:none;stroke-dashoffset:0;stroke-opacity:1"
       id="path5499"
       cx="32"
       cy="32"
       r="16" />
    <circle
       style="opacity:1;fill:#1284a1;fill-opacity:1;fill-rule:evenodd;stroke:none;stroke-width:1.12600005;stroke-linecap:round;stroke-linejoin:bevel;stroke-miterlimit:4;stroke-dasharray:none;stroke-dashoffset:0;stroke-opacity:1"
       id="path5503-3"
       cx="51.36364"
       cy="13.545455"
       r="5" />
  </g>
</svg>
